General                          : ChattChitto RG - Movies

Complete name                    : The Beacon 2009 BRRip.mp4
Format                           : MPEG-4
Format profile                   : Base Media
Codec ID                         : isom
File size                        : 1.83 GiB
Duration                         : 1h 38mn
Overall bit rate                 : 2 660 Kbps
Encoded date                     : UTC 2010-05-12 13:06:53

Video
==========
ID                               : 1
Format                           : AVC
Format/Info                      : Advanced Video Codec
Format profile                   : High@L3.1
Format settings, CABAC           : Yes
Format settings, ReFrames        : 3 frames
Codec ID                         : avc1
Codec ID/Info                    : Advanced Video Coding
Duration                         : 1h 38mn
Bit rate mode                    : Variable
Bit rate                         : 2 300 Kbps
Maximum bit rate                 : 15.6 Mbps
Width                            : 1 280 pixels
Height                           : 720 pixels
Display aspect ratio             : 16:9
Frame rate mode                  : Constant
Frame rate                       : 23.976 fps
Resolution                       : 8 bits
Colorimetry                      : 4:2:0
Scan type                        : Progressive
Bits/(Pixel*Frame)               : 0.104
Stream size                      : 1.58 GiB (86%)
Writing library                  : x264 core 76 r1271 496d79d
Encoded date                     : UTC 2010-05-12 13:00:35

Audio
==========
ID                               : 2
Format                           : AAC
Format/Info                      : Advanced Audio Codec
Format version                   : Version 4
Format profile                   : LC
Format settings, SBR             : No
Codec ID                         : 40
Duration                         : 1h 38mn
Bit rate mode                    : Variable
Bit rate                         : 352.8 Kbps
Maximum bit rate                 : 467 Kbps
Channel(s)                       : 6 channels
Channel positions                : Front: L C R, Side: L R, LFE
Sampling rate                    : 48.0 KHz
Stream size                      : 251 MiB (13%)
Encoded date                     : UTC 2010-05-12 13:07:56

Subtitles                        : Spanish


----------------------------------------------------
IMDB Link: http://www.imdb.com/title/tt1190910/
----------------------------------------------------



Screen Shots:
==============    
http://img179.imageshack.us/img179/5181/34605405.jpg     
http://img16.imageshack.us/img16/7756/33466994.jpg 
http://img412.imageshack.us/img412/6666/51875101.jpg 
http://img180.imageshack.us/img180/5009/74849336.jpg 
http://img215.imageshack.us/img215/8585/82922205.jpg



Plot:
======
While trying to get their lives back on track after the loss of their four year old son, Bryn and Paul Shaw move to the charming old Beacon Apartments. Bryn begins seeing a ghostly little boy skulking around the building. With the help of an eccentric young professor and a tough old beat cop, Bryn tries to uncover the details of the boy's death. She hopes that freeing the child will allow him to carry a message to her son. Too late she realizes a second malevolent entity stalks the halls of the Beacon: one that doesn't want the boy to escape.  




Release Info:
==============
original name .... : The Beacon 2009 BRRip.mp4
ripper.............: THUGLiNE
encoder............: Recalled2Life (R2L)
video codec........: H264/.MP4                   
video bitrate......: 2300 Kbps                           
audio codec........: AAC-LC
aspect ratio.......: 16:9 | 1.78:1
resolution.........: 1280 x 720
genre..............: Thriller         
runtime............: 1h 38mn
language...........: English
rating.............: R                             
subtitles..........: Spanish
sample.............: Yes [8.16 MB]
2ch Audio..........: 2ch Audio for XBox Viewers  
Compatibility .....: XBox 360 | PS3 | WD Live   



Source:
========
The Beacon 2009 720p BluRay x264-THUGLiNE [4.37 GB]


Notes:
=======
ChattChitto RG Encourages Burning this Film with ConvertXtoDVD.
XBox 360 | PS3 | WD Live - Compatible
Enhanced and Filtered for your viewing pleasure ;)